<?xml version="1.0" encoding="utf-8"?>
<!-- Generator: Adobe Illustrator 17.1.0, SVG Export Plug-In . SVG Version: 6.00 Build 0)  -->
<!DOCTYPE svg PUBLIC "-//W3C//DTD SVG 1.1//EN" "http://www.w3.org/Graphics/SVG/1.1/DTD/svg11.dtd">
<svg version="1.1" id="Layer_1" xmlns="http://www.w3.org/2000/svg" xmlns:xlink="http://www.w3.org/1999/xlink" x="0px" y="0px"
	 viewBox="0 0 500 500" enable-background="new 0 0 500 500" xml:space="preserve">
<g>
	<g>
		<g>
			<path fill="#486786" d="M177.5,342.3c-49.7,0-59.1-31.6-60.8-45.2c-3.2-25,2.8-37.7,19.9-42.7c4.9-1.4,20.4-3.5,38-3.5
				c38.1,0,59.3,9.5,61.2,27.5c1.8,16.8-3.2,33.3-13.9,45.2C211.1,335.7,195.3,342.3,177.5,342.3z M174.6,260.7
				c-17,0-31.6,2.1-35.3,3.1c-8.3,2.4-16.1,6.8-12.9,32c3,23.6,21.2,36.7,51.1,36.7c15,0,28.2-5.5,37.2-15.5
				c8.8-9.8,13-23.5,11.5-37.6C224.3,262.5,189.5,260.7,174.6,260.7z"/>
		</g>
		<g>
			<path fill="#486786" d="M323.4,342.3c-17.8,0-33.6-6.7-44.4-18.7c-10.7-11.9-15.8-28.4-13.9-45.2c2-18,23.1-27.5,61.2-27.5
				c17.6,0,33.1,2.1,38,3.5c17.1,4.9,23.1,17.7,19.9,42.7C382.5,310.7,373.1,342.3,323.4,342.3z M326.3,260.7
				c-14.9,0-49.7,1.8-51.5,18.7c-1.5,14.1,2.7,27.8,11.5,37.6c9,10,22.2,15.5,37.2,15.5c30,0,48.1-13,51.1-36.7
				c3.2-25.2-4.6-29.6-12.9-32C357.9,262.8,343.3,260.7,326.3,260.7z"/>
		</g>
		<g>
			<path fill="#486786" d="M271.2,277.7c-0.8,0-1.6-0.2-2.3-0.6c-17.7-9.5-37.4,0-37.6,0.1c-2.4,1.2-5.3,0.2-6.5-2.2
				c-1.2-2.4-0.2-5.3,2.2-6.5c1-0.5,24.3-11.9,46.6,0.1c2.4,1.3,3.3,4.2,2,6.6C274.6,276.7,273,277.7,271.2,277.7z"/>
		</g>
	</g>
	<g>
		<path fill="#486786" d="M250,369.6c-23.2,0-29.3-13.8-29.3-21.1c0-2.7,2.2-4.9,4.9-4.9c2.7,0,4.8,2.1,4.9,4.8
			c0,1.2,1,11.5,19.5,11.5c18.6,0,19.5-10.3,19.5-11.5c0-2.7,2.2-4.8,4.9-4.8c2.7,0,4.9,2.2,4.9,4.9
			C279.3,355.8,273.2,369.6,250,369.6z"/>
	</g>
	<g>
		<path fill="#486786" d="M279.3,410.3h-58.6c-2.7,0-4.9-2.2-4.9-4.9c0-2.7,2.2-4.9,4.9-4.9h58.6c2.7,0,4.9,2.2,4.9,4.9
			C284.2,408.1,282,410.3,279.3,410.3z"/>
	</g>
	<g>
		<path fill="#486786" d="M259.8,429.8h-19.5c-2.7,0-4.9-2.2-4.9-4.9c0-2.7,2.2-4.9,4.9-4.9h19.5c2.7,0,4.9,2.2,4.9,4.9
			C264.6,427.6,262.5,429.8,259.8,429.8z"/>
	</g>
	<g>
		<path fill="#486786" d="M386.7,195.5c-1.3,0-2.5-0.5-3.4-1.4c-0.5-0.4-39.3-37.6-133.2-37.6c-94.1,0-132.9,37.3-133.2,37.6
			c-1.4,1.4-3.5,1.8-5.3,1c-1.8-0.8-3-2.5-3-4.5V132c0-1.2,0.2-31,17.7-61c29.4-50.4,83.6-61,123.8-61c40.2,0,94.4,10.6,123.8,61
			c17.5,30.1,17.8,59.8,17.8,61v58.6c0,2-1.2,3.8-3,4.5C387.9,195.4,387.3,195.5,386.7,195.5z M250,19.8
			c-54.6,0-93.4,18.8-115.2,55.8c-16.4,27.8-16.6,56.2-16.6,56.5v48.4c16.3-11.5,57.3-33.7,131.8-33.7c74.5,0,115.5,22.2,131.8,33.7
			V132c0-0.3-0.3-28.6-16.6-56.5C343.4,38.5,304.6,19.8,250,19.8z"/>
	</g>
	<g>
		<path fill="#486786" d="M398.1,216.2c-0.6,0-1.1-0.1-1.7-0.3c-0.6-0.2-63.7-20.9-146.4-20.9S104.2,215.8,103.6,216
			c-2.1,0.7-4.4,0-5.8-1.7c-1.4-1.7-1.6-4.1-0.5-6l12.2-21.2l9.2,5.3l-5.6,9.8c22.9-6.1,74.5-17.7,136.9-17.7
			c62.4,0,114,11.6,136.9,17.7l-5.6-9.8l9.2-5.3l12.2,21.2c1.1,1.9,0.9,4.3-0.5,6C401.1,215.5,399.6,216.2,398.1,216.2z"/>
	</g>
	<g>
		<path fill="#486786" d="M191.4,283.4c0,8.1-6.6,14.6-14.6,14.6c-8.1,0-14.6-6.6-14.6-14.6c0-8.1,6.6-14.6,14.6-14.6
			C184.9,268.7,191.4,275.3,191.4,283.4z"/>
	</g>
	<g>
		<path fill="#486786" d="M337.9,283.4c0,8.1-6.6,14.6-14.6,14.6c-8.1,0-14.6-6.6-14.6-14.6c0-8.1,6.6-14.6,14.6-14.6
			C331.3,268.7,337.9,275.3,337.9,283.4z"/>
	</g>
	<g>
		<path fill="#486786" d="M210.9,190.6l107.4,41.5l-9.8-19.5h19.5l-9.8-19.5C318.3,193.1,269.5,190.6,210.9,190.6z"/>
	</g>
	<g>
		<path fill="#486786" d="M220.7,239.4c0,5.4-4.4,9.8-9.8,9.8h-58.6c-5.4,0-9.8-4.4-9.8-9.8l0,0c0-5.4,4.4-9.8,9.8-9.8h58.6
			C216.3,229.7,220.7,234,220.7,239.4L220.7,239.4z"/>
	</g>
	<g>
		<path fill="#486786" d="M357.4,239.4c0,5.4-4.4,9.8-9.8,9.8H289c-5.4,0-9.8-4.4-9.8-9.8l0,0c0-5.4,4.4-9.8,9.8-9.8h58.6
			C353,229.7,357.4,234,357.4,239.4L357.4,239.4z"/>
	</g>
	<g>
		<path fill="#486786" d="M250,490c-59.2,0-86.8-38.8-111.2-73c-2.6-3.7-5.3-7.4-7.9-11c-22.2-30.4-22.5-95.5-22.5-98.3v-97.6
			c0-2.7,2.2-4.9,4.9-4.9c2.7,0,4.9,2.2,4.9,4.9v97.6c0,0.6,0.3,64.7,20.6,92.5c2.7,3.6,5.3,7.4,8,11.1
			c24.1,33.9,49,68.9,103.2,68.9c2.7,0,4.9,2.2,4.9,4.9C254.9,487.8,252.7,490,250,490z"/>
	</g>
	<g>
		<path fill="#486786" d="M250,490c-2.7,0-4.9-2.2-4.9-4.9c0-2.7,2.2-4.9,4.9-4.9c54.2,0,79.1-35,103.2-68.9c2.7-3.7,5.3-7.5,8-11.1
			c20.4-27.9,20.6-91.9,20.6-92.5v-97.6c0-2.7,2.2-4.9,4.9-4.9c2.7,0,4.9,2.2,4.9,4.9v97.6c0,2.8-0.3,67.8-22.5,98.3
			c-2.6,3.6-5.3,7.3-7.9,11C336.8,451.2,309.2,490,250,490z"/>
	</g>
	<g>
		<path fill="#486786" d="M250,485.1"/>
	</g>
	<g>
		<path fill="#486786" d="M386.7,312.6c-2.7,0-4.9-2.2-4.9-4.9v-97.6c0-2.7,2.2-4.9,4.9-4.9c2.7,0,4.9,2.2,4.9,4.9v97.6
			C391.6,310.5,389.4,312.6,386.7,312.6z"/>
	</g>
	<g>
		<polygon fill="#486786" points="108,209.1 82.4,244.3 101.9,244.3 95.2,263.8 113.3,258.9 		"/>
	</g>
	<g>
		<polygon fill="#486786" points="392,209.1 417.6,244.3 398.1,244.3 404.8,263.8 386.7,258.9 		"/>
	</g>
	<g>
		<g>
			<path fill="#486786" d="M148.3,426.3c-2.1,0-3.9-1.7-3.9-3.9v-24.4c0-2.1,1.7-3.9,3.9-3.9c2.1,0,3.9,1.7,3.9,3.9v24.4
				C152.2,424.6,150.4,426.3,148.3,426.3z"/>
		</g>
		<g>
			<path fill="#486786" d="M163.6,445.9c-2.1,0-3.9-1.7-3.9-3.9v-24.4c0-2.1,1.7-3.9,3.9-3.9c2.1,0,3.9,1.7,3.9,3.9V442
				C167.5,444.1,165.8,445.9,163.6,445.9z"/>
		</g>
		<g>
			<path fill="#486786" d="M178.9,462.9c-2.1,0-3.9-1.7-3.9-3.9v-24.4c0-2.1,1.7-3.9,3.9-3.9c2.1,0,3.9,1.7,3.9,3.9v24.4
				C182.8,461.2,181.1,462.9,178.9,462.9z"/>
		</g>
		<g>
			<path fill="#486786" d="M194.3,475.1c-2.1,0-3.9-1.7-3.9-3.9v-24.4c0-2.1,1.7-3.9,3.9-3.9c2.1,0,3.9,1.7,3.9,3.9v24.4
				C198.1,473.4,196.4,475.1,194.3,475.1z"/>
		</g>
		<g>
			<path fill="#486786" d="M209.6,482.5c-2.1,0-3.9-1.7-3.9-3.9v-24.4c0-2.1,1.7-3.9,3.9-3.9c2.1,0,3.9,1.7,3.9,3.9v24.4
				C213.5,480.7,211.7,482.5,209.6,482.5z"/>
		</g>
		<g>
			<path fill="#486786" d="M224.9,487.3c-2.1,0-3.9-1.7-3.9-3.9v-24.4c0-2.1,1.7-3.9,3.9-3.9s3.9,1.7,3.9,3.9v24.4
				C228.8,485.6,227,487.3,224.9,487.3z"/>
		</g>
		<g>
			<path fill="#486786" d="M240.2,487.3c-2.1,0-3.9-1.7-3.9-3.9v-24.4c0-2.1,1.7-3.9,3.9-3.9c2.1,0,3.9,1.7,3.9,3.9v24.4
				C244.1,485.6,242.4,487.3,240.2,487.3z"/>
		</g>
	</g>
	<g>
		<g>
			<path fill="#486786" d="M351.7,425.9c-2.1,0-3.9-1.7-3.9-3.9v-24.4c0-2.1,1.7-3.9,3.9-3.9s3.9,1.7,3.9,3.9v24.4
				C355.6,424.2,353.8,425.9,351.7,425.9z"/>
		</g>
		<g>
			<path fill="#486786" d="M336.4,445.5c-2.1,0-3.9-1.7-3.9-3.9v-24.4c0-2.1,1.7-3.9,3.9-3.9c2.1,0,3.9,1.7,3.9,3.9v24.4
				C340.2,443.7,338.5,445.5,336.4,445.5z"/>
		</g>
		<g>
			<path fill="#486786" d="M321.1,462.5c-2.1,0-3.9-1.7-3.9-3.9v-24.4c0-2.1,1.7-3.9,3.9-3.9s3.9,1.7,3.9,3.9v24.4
				C324.9,460.8,323.2,462.5,321.1,462.5z"/>
		</g>
		<g>
			<path fill="#486786" d="M305.7,474.7c-2.1,0-3.9-1.7-3.9-3.9v-24.4c0-2.1,1.7-3.9,3.9-3.9c2.1,0,3.9,1.7,3.9,3.9v24.4
				C309.6,473,307.9,474.7,305.7,474.7z"/>
		</g>
		<g>
			<path fill="#486786" d="M290.4,482.1c-2.1,0-3.9-1.7-3.9-3.9v-24.4c0-2.1,1.7-3.9,3.9-3.9s3.9,1.7,3.9,3.9v24.4
				C294.3,480.3,292.5,482.1,290.4,482.1z"/>
		</g>
		<g>
			<path fill="#486786" d="M275.1,486.9c-2.1,0-3.9-1.7-3.9-3.9v-24.4c0-2.1,1.7-3.9,3.9-3.9s3.9,1.7,3.9,3.9v24.4
				C278.9,485.2,277.2,486.9,275.1,486.9z"/>
		</g>
		<g>
			<path fill="#486786" d="M259.8,486.9c-2.1,0-3.9-1.7-3.9-3.9v-24.4c0-2.1,1.7-3.9,3.9-3.9s3.9,1.7,3.9,3.9v24.4
				C263.6,485.2,261.9,486.9,259.8,486.9z"/>
		</g>
	</g>
	<g>
		<path fill="#486786" d="M265.3,124.4h-34.9c-1.9,0-3.5-1.6-3.5-3.5c0-1.9,1.6-3.5,3.5-3.5h34.9c10.2,0,10.5-9.4,10.5-10.5V79
			c0-9.8-8.7-10.4-10.5-10.5h-34.8c-1.9,0-3.5-1.6-3.5-3.5c0-1.9,1.6-3.5,3.5-3.5h34.9c0.4,0,4.4,0.1,8.5,2.1
			c5.7,2.9,8.9,8.3,8.9,15.3v27.9c0,0.4-0.1,4.4-2.1,8.5C277.8,121.2,272.4,124.4,265.3,124.4z"/>
	</g>
	<g>
		<path fill="#486786" d="M237.4,124.4c-1.9,0-3.5-1.6-3.5-3.5V65.1c0-1.9,1.6-3.5,3.5-3.5c1.9,0,3.5,1.6,3.5,3.5v55.8
			C240.9,122.8,239.4,124.4,237.4,124.4z"/>
	</g>
	<g>
		<path fill="#486786" d="M251.4,124.4c-1.9,0-3.5-1.6-3.5-3.5V65.1c0-1.9,1.6-3.5,3.5-3.5c1.9,0,3.5,1.6,3.5,3.5v55.8
			C254.9,122.8,253.3,124.4,251.4,124.4z"/>
	</g>
	<g>
		<path fill="#486786" d="M237.4,89.5h-7c-1.9,0-3.5-1.6-3.5-3.5c0-1.9,1.6-3.5,3.5-3.5h7c1.9,0,3.5,1.6,3.5,3.5
			C240.9,87.9,239.4,89.5,237.4,89.5z"/>
	</g>
	<g>
		<path fill="#486786" d="M251.4,82.5h-13.9c-1.9,0-3.5-1.6-3.5-3.5c0-1.9,1.6-3.5,3.5-3.5h13.9c1.9,0,3.5,1.6,3.5,3.5
			C254.9,81,253.3,82.5,251.4,82.5z"/>
	</g>
	<g>
		<path fill="#486786" d="M251.4,110.4h-13.9c-1.9,0-3.5-1.6-3.5-3.5c0-1.9,1.6-3.5,3.5-3.5h13.9c1.9,0,3.5,1.6,3.5,3.5
			C254.9,108.9,253.3,110.4,251.4,110.4z"/>
	</g>
	<g>
		<path fill="#486786" d="M237.4,103.4h-7c-1.9,0-3.5-1.6-3.5-3.5c0-1.9,1.6-3.5,3.5-3.5h7c1.9,0,3.5,1.6,3.5,3.5
			C240.9,101.9,239.4,103.4,237.4,103.4z"/>
	</g>
	<g>
		<path fill="#486786" d="M251.4,89.5c-1.9,0-3.5-1.6-3.5-3.5c0-1.9,1.6-3.5,3.5-3.5c11.1,0,22.6-1.8,24.4-3.8
			c0.2-1.8,1.7-3.2,3.5-3.2c1.9,0,3.5,1.6,3.5,3.5C282.8,83.8,277.3,89.5,251.4,89.5z"/>
	</g>
	<g>
		<path fill="#486786" d="M279.3,110.4c-1.8,0-3.3-1.4-3.5-3.2c-1.9-2-13.3-3.8-24.4-3.8c-1.9,0-3.5-1.6-3.5-3.5
			c0-1.9,1.6-3.5,3.5-3.5c25.9,0,31.4,5.7,31.4,10.5C282.8,108.9,281.2,110.4,279.3,110.4z"/>
	</g>
	<g>
		<path fill="#486786" d="M234,391.3c-2.1,0-3.9-1.7-3.9-3.9v-9.2c0-2.1,1.7-3.9,3.9-3.9c2.1,0,3.9,1.7,3.9,3.9v9.2
			C237.8,389.6,236.1,391.3,234,391.3z"/>
	</g>
	<g>
		<path fill="#486786" d="M219.3,393.7c-2.1,0-3.9-1.7-3.9-3.9v-9.2c0-2.1,1.7-3.9,3.9-3.9s3.9,1.7,3.9,3.9v9.2
			C223.2,392,221.4,393.7,219.3,393.7z"/>
	</g>
	<g>
		<path fill="#486786" d="M204.7,396.2c-2.1,0-3.9-1.7-3.9-3.9v-9.2c0-2.1,1.7-3.9,3.9-3.9c2.1,0,3.9,1.7,3.9,3.9v9.2
			C208.5,394.5,206.8,396.2,204.7,396.2z"/>
	</g>
	<g>
		<path fill="#486786" d="M190,401.1c-2.1,0-3.9-1.7-3.9-3.9V388c0-2.1,1.7-3.9,3.9-3.9c2.1,0,3.9,1.7,3.9,3.9v9.2
			C193.9,399.3,192.2,401.1,190,401.1z"/>
	</g>
	<g>
		<path fill="#486786" d="M265.3,391.3c-2.1,0-3.9-1.7-3.9-3.9v-9.2c0-2.1,1.7-3.9,3.9-3.9s3.9,1.7,3.9,3.9v9.2
			C269.2,389.6,267.5,391.3,265.3,391.3z"/>
	</g>
	<g>
		<path fill="#486786" d="M280,393.7c-2.1,0-3.9-1.7-3.9-3.9v-9.2c0-2.1,1.7-3.9,3.9-3.9c2.1,0,3.9,1.7,3.9,3.9v9.2
			C283.8,392,282.1,393.7,280,393.7z"/>
	</g>
	<g>
		<path fill="#486786" d="M294.6,396.2c-2.1,0-3.9-1.7-3.9-3.9v-9.2c0-2.1,1.7-3.9,3.9-3.9c2.1,0,3.9,1.7,3.9,3.9v9.2
			C298.5,394.5,296.7,396.2,294.6,396.2z"/>
	</g>
	<g>
		<path fill="#486786" d="M309.3,401.1c-2.1,0-3.9-1.7-3.9-3.9V388c0-2.1,1.7-3.9,3.9-3.9c2.1,0,3.9,1.7,3.9,3.9v9.2
			C313.1,399.3,311.4,401.1,309.3,401.1z"/>
	</g>
</g>
</svg>
